<svg width="169" height="54" viewBox="0 0 169 54" fill="none" xmlns="http://www.w3.org/2000/svg">
<g clip-path="url(#clip0_1_5798)" filter="url(#filter0_dd_1_5798)">
<path d="M159 0.0682373H10V20.7165H159V0.0682373Z" fill="white"/>
<path d="M159 0.0682373H10V20.7165H159V0.0682373Z" fill="white"/>
<path d="M28.3672 13.9018L27.5744 16.9703H16.3485L19.6277 4.40125H23.9736L21.4616 13.9018H28.3672Z" fill="#E1251B"/>
<path d="M30.7772 10.3688C31.0351 9.50283 31.5859 8.83767 32.4328 8.36703C33.2765 7.90581 34.5755 7.66736 36.3233 7.66736C38.2973 7.66736 39.6313 7.89013 40.3126 8.33566C41.0003 8.7906 41.3282 9.44008 41.3027 10.2998C41.2868 10.8708 41.0863 11.8152 40.7106 13.1204C40.3476 14.3598 40.1661 15.2226 40.1534 15.7058C40.1439 16.1168 40.2171 16.5404 40.3667 16.9671H36.6035C36.5207 16.6063 36.4857 16.2643 36.4889 15.9317C35.4542 16.7663 34.3176 17.1836 33.0727 17.1836C31.8279 17.1836 30.8919 16.9137 30.3474 16.3741C29.8062 15.8344 29.5388 15.2163 29.561 14.5041C29.5801 13.7009 29.8412 13.0859 30.3506 12.6623C30.86 12.2388 31.4808 11.9533 32.2099 11.8027C32.9454 11.6489 33.9451 11.5171 35.2058 11.4042C36.3329 11.2944 37.0779 11.1846 37.4568 11.0842C37.5395 10.8175 37.5809 10.6104 37.5905 10.4661C37.5937 10.2339 37.4663 10.0519 37.218 9.92012C36.9665 9.77893 36.629 9.71618 36.1992 9.71618C35.7694 9.71618 35.4001 9.77893 35.1167 9.90444C34.8365 10.0362 34.585 10.306 34.3717 10.7171L30.7772 10.3657V10.3688ZM36.9792 12.8977C35.1931 13.1675 34.1457 13.4028 33.8273 13.6099C33.5153 13.817 33.3465 14.0617 33.3433 14.3409C33.3306 14.6296 33.4357 14.8618 33.6554 15.0312C33.8719 15.1944 34.1552 15.2822 34.5022 15.2822C34.9894 15.2822 35.4828 15.1002 35.97 14.7488C36.4539 14.388 36.7945 13.773 36.976 12.8977" fill="#E1251B"/>
<path d="M63.4427 4.40125L62.7327 7.10268H55.6679L55.149 9.09817H61.9654L61.2682 11.649H54.4645L53.8118 14.1088H61.4815L60.7238 16.9703H48.7655L52.0639 4.40125H63.4427Z" fill="#E1251B"/>
<path d="M75.3563 11.0402L71.851 11.2097C71.7077 10.4159 71.1314 10.0174 70.1063 10.0174C69.1607 10.0174 68.4284 10.3625 67.9031 11.0496C67.3746 11.7368 67.104 12.4898 67.0785 13.3024C67.0658 13.795 67.2345 14.1684 67.5943 14.4319C67.9413 14.6955 68.3297 14.8241 68.7532 14.8241C69.7783 14.8241 70.5647 14.3096 71.0932 13.2836L74.7036 13.6381C73.7421 16.0007 71.6918 17.1867 68.5398 17.1867C64.9836 17.1867 63.2421 15.8689 63.3153 13.2459C63.3503 11.7242 63.9711 10.4096 65.1682 9.31144C66.3717 8.21643 68.04 7.66736 70.1604 7.66736C71.6886 7.66736 72.9016 7.9466 73.7994 8.5145C74.6941 9.07926 75.213 9.91699 75.3499 11.0402" fill="#E1251B"/>
<path d="M82.7649 7.67053C84.5733 7.67053 85.8786 8.08155 86.6841 8.90359C87.4864 9.72877 87.8812 10.6889 87.8462 11.7933C87.8239 12.6341 87.5597 13.4907 87.0694 14.3535C86.5632 15.2226 85.8373 15.9129 84.863 16.4243C83.9015 16.9326 82.7235 17.1899 81.3291 17.1899C79.5621 17.1899 78.2695 16.7977 77.4417 16.007C76.6203 15.2226 76.2287 14.2437 76.251 13.0765C76.2796 12.1478 76.5566 11.2662 77.0851 10.4065C77.6041 9.54993 78.3522 8.87849 79.3233 8.39531C80.2975 7.91526 81.4405 7.67367 82.7617 7.67367M81.6347 14.8304C82.3606 14.8304 82.94 14.501 83.3858 13.8327C83.8219 13.1707 84.0544 12.4302 84.0766 11.6144C84.0862 11.0277 83.9397 10.6167 83.6214 10.3751C83.3062 10.1398 82.9496 10.0206 82.5612 10.0206C81.7429 10.0206 81.1221 10.3531 80.6923 11.0214C80.2657 11.6897 80.0428 12.3737 80.0269 13.0734C80.0142 13.5723 80.167 13.9958 80.4694 14.3316C80.7878 14.6641 81.173 14.8304 81.6347 14.8304Z" fill="#E1251B"/>
<path d="M94.2519 9.28324C95.3503 8.20705 96.6556 7.67053 98.1934 7.67053C99.1039 7.67053 99.7821 7.88075 100.234 8.30118C100.677 8.72161 100.893 9.23617 100.871 9.848C100.861 10.2151 100.721 10.9367 100.435 12.0066L99.139 16.9702H95.2611L96.3659 12.744C96.6397 11.7117 96.7734 11.1156 96.7766 10.9681C96.7893 10.4661 96.5346 10.2151 96.0348 10.2151C95.4649 10.2151 94.9619 10.4535 94.5193 10.9399C94.0863 11.4199 93.7425 12.1196 93.5069 13.0295L92.4531 16.9671H88.5561L90.9599 7.87134H94.5798L94.2137 9.24245L94.2423 9.2801L94.2519 9.28324Z" fill="#E1251B"/>
<path d="M108.716 7.67053C110.518 7.67053 111.826 8.08155 112.632 8.90673C113.437 9.72877 113.822 10.692 113.8 11.7964C113.768 12.6373 113.51 13.4938 113.017 14.3598C112.517 15.2289 111.788 15.916 110.823 16.4274C109.859 16.9357 108.677 17.193 107.28 17.193C105.516 17.193 104.22 16.8008 103.399 16.0102C102.577 15.2258 102.179 14.2468 102.214 13.0797C102.24 12.151 102.511 11.2693 103.036 10.4096C103.561 9.55307 104.309 8.88477 105.277 8.39844C106.242 7.9184 107.391 7.67681 108.716 7.67681M107.592 14.8367C108.311 14.8367 108.894 14.5073 109.337 13.839C109.779 13.1769 110.008 12.4365 110.027 11.6207C110.043 11.034 109.89 10.623 109.578 10.3814C109.257 10.1461 108.904 10.0268 108.509 10.0268C107.697 10.0268 107.079 10.3563 106.649 11.0277C106.223 11.696 106 12.3831 105.981 13.0797C105.968 13.5785 106.121 14.0021 106.43 14.3378C106.745 14.6704 107.13 14.8367 107.592 14.8367Z" fill="#E1251B"/>
<path d="M126.65 9.21421C127.395 8.61807 128.073 8.21333 128.684 7.99684C129.286 7.77721 129.929 7.67053 130.607 7.67053C131.518 7.67053 132.199 7.89016 132.642 8.32628C133.091 8.7624 133.301 9.29579 133.282 9.91702C133.278 10.2904 133.224 10.6481 133.132 10.9995L131.54 16.9734H127.659L128.691 13.0922C128.949 12.1008 129.095 11.5109 129.127 11.3226C129.162 11.1313 129.178 11.0026 129.178 10.9242C129.187 10.4535 128.949 10.2151 128.452 10.2151C127.872 10.2151 127.395 10.4379 127.003 10.8677C126.618 11.3007 126.3 11.9909 126.054 12.9259L124.991 16.9734H121.107L122.113 13.1581C122.384 12.1321 122.533 11.5329 122.562 11.3446C122.6 11.1532 122.619 11.0152 122.619 10.9116C122.632 10.4504 122.374 10.2182 121.855 10.2182C121.463 10.2182 121.053 10.4002 120.604 10.761C120.158 11.125 119.824 11.7399 119.591 12.609L118.429 16.9734H114.532L116.943 7.87761H120.54L120.193 9.18283L120.228 9.21735C121.358 8.18823 122.622 7.67367 124.004 7.67367C124.638 7.67367 125.192 7.80858 125.672 8.07528C126.16 8.34197 126.487 8.72789 126.65 9.21735" fill="#E1251B"/>
<path d="M140.362 7.87446L137.962 16.9702H134.078L136.472 7.87446H140.365H140.362ZM142.19 4.18469L138.653 6.74494H136.774L138.945 4.18469H142.193H142.19Z" fill="#E1251B"/>
<path d="M142.123 10.3688C142.381 9.50597 142.928 8.8408 143.775 8.36703C144.619 7.90581 145.915 7.66736 147.669 7.66736C149.649 7.66736 150.983 7.89013 151.665 8.33566C152.346 8.78747 152.674 9.43694 152.652 10.2966C152.636 10.8677 152.438 11.8121 152.056 13.1204C151.703 14.3566 151.515 15.2195 151.509 15.7058C151.493 16.1168 151.566 16.5404 151.722 16.9671H147.946C147.873 16.6063 147.835 16.2643 147.844 15.9317C146.813 16.7663 145.67 17.1836 144.418 17.1836C143.167 17.1836 142.234 16.9106 141.696 16.3741C141.152 15.8344 140.888 15.2132 140.907 14.5041C140.929 13.6977 141.193 13.0859 141.699 12.6655C142.212 12.2419 142.83 11.9533 143.562 11.8027C144.294 11.6489 145.297 11.5203 146.552 11.4042C147.675 11.2944 148.43 11.1846 148.799 11.0842C148.885 10.8175 148.93 10.6072 148.933 10.4661C148.939 10.2339 148.822 10.0488 148.56 9.92012C148.306 9.77893 147.968 9.71618 147.545 9.71618C147.121 9.71618 146.743 9.77893 146.466 9.90444C146.185 10.0362 145.937 10.306 145.717 10.7171L142.123 10.3657V10.3688ZM148.328 12.8977C146.539 13.1675 145.491 13.4028 145.176 13.6099C144.858 13.817 144.699 14.0617 144.689 14.3409C144.683 14.6296 144.785 14.8618 145.011 15.0312C145.224 15.1944 145.504 15.2822 145.854 15.2822C146.341 15.2822 146.832 15.1002 147.322 14.7488C147.806 14.388 148.14 13.773 148.328 12.8977Z" fill="#E1251B"/>
<path d="M159 20.7166H10V33.9319H159V20.7166Z" fill="#1A428A"/>
<path d="M59.4311 23.167H62.4875C63.0892 23.167 63.5763 23.2485 63.9488 23.4085C64.3181 23.5686 64.627 23.8007 64.8689 24.1019C65.1109 24.4032 65.286 24.7546 65.3942 25.153C65.5025 25.5515 65.5566 25.9782 65.5566 26.4237C65.5566 27.1266 65.4738 27.6693 65.3147 28.0553C65.1523 28.4412 64.9262 28.7644 64.6397 29.0279C64.3532 29.2883 64.0443 29.464 63.7132 29.5487C63.2611 29.668 62.8536 29.7276 62.4875 29.7276H59.4311V23.1638V23.167ZM61.4878 24.6542V28.2404H61.9908C62.4206 28.2404 62.7263 28.1933 62.9077 28.0992C63.0892 28.0051 63.2325 27.8419 63.3344 27.6066C63.4362 27.3713 63.4904 26.9916 63.4904 26.4677C63.4904 25.7711 63.3757 25.2974 63.1465 25.0401C62.9173 24.7828 62.5352 24.6542 62.0004 24.6542H61.4878Z" fill="#FFE800"/>
<path d="M66.7219 24.9771H68.4539V25.7552C68.6194 25.4195 68.7913 25.1873 68.9696 25.0587C69.1479 24.9332 69.3644 24.8673 69.6255 24.8673C69.8865 24.8673 70.1954 24.952 70.5201 25.1183L69.947 26.4173C69.7305 26.3263 69.5554 26.2823 69.4281 26.2823C69.1861 26.2823 68.9983 26.3796 68.8646 26.5773C68.6735 26.8534 68.578 27.3742 68.578 28.1366V29.7305H66.7219V24.9771Z" fill="#FFE800"/>
<path d="M70.9404 27.3681C70.9404 26.6433 71.1887 26.0441 71.6854 25.5766C72.1821 25.1059 72.8539 24.8706 73.6976 24.8706C74.6622 24.8706 75.3945 25.1467 75.888 25.6989C76.2859 26.1445 76.4833 26.6904 76.4833 27.343C76.4833 28.074 76.2382 28.6733 75.7447 29.1408C75.2512 29.6083 74.5731 29.8405 73.7039 29.8405C72.9271 29.8405 72.3031 29.646 71.8223 29.26C71.2333 28.78 70.9404 28.1493 70.9404 27.3712M72.7934 27.3681C72.7934 27.7917 72.8793 28.1054 73.0544 28.3094C73.2295 28.5133 73.446 28.6137 73.7103 28.6137C73.9745 28.6137 74.1942 28.5133 74.3661 28.3125C74.5381 28.1117 74.624 27.7917 74.624 27.3493C74.624 26.9383 74.5381 26.6308 74.3661 26.43C74.1942 26.2292 73.9809 26.1288 73.7262 26.1288C73.4556 26.1288 73.2327 26.2323 73.0576 26.4362C72.8825 26.6402 72.7934 26.9508 72.7934 27.3681Z" fill="#FFE800"/>
<path d="M80.9183 24.9773H82.6502V29.6773C82.6534 29.9754 82.5897 30.2609 82.4624 30.5308C82.335 30.8006 82.1631 31.0202 81.9498 31.1865C81.7365 31.3528 81.4659 31.4752 81.1348 31.5505C80.8068 31.6258 80.4311 31.6634 80.0077 31.6634C79.0398 31.6634 78.3744 31.5191 78.0115 31.2336C77.6485 30.9481 77.4671 30.5621 77.4671 30.0821C77.4671 30.0225 77.4703 29.9409 77.4766 29.8405L79.2723 30.0413C79.3168 30.2044 79.3869 30.3174 79.4824 30.3802C79.6193 30.4743 79.7912 30.5182 79.995 30.5182C80.2624 30.5182 80.4598 30.4492 80.5935 30.308C80.7241 30.1668 80.7909 29.9221 80.7909 29.5738V28.8522C80.6094 29.0655 80.428 29.2193 80.2465 29.3134C79.9631 29.464 79.6543 29.5361 79.3232 29.5361C78.6769 29.5361 78.1579 29.26 77.76 28.7047C77.4766 28.3094 77.3365 27.7885 77.3365 27.1422C77.3365 26.4017 77.518 25.837 77.881 25.4511C78.2439 25.062 78.7215 24.8706 79.3073 24.8706C79.683 24.8706 79.9918 24.9334 80.2369 25.0589C80.4821 25.1844 80.7081 25.3914 80.9214 25.6801V24.9773H80.9183ZM79.1767 27.2834C79.1767 27.6254 79.25 27.8795 79.3996 28.0458C79.5492 28.2121 79.7435 28.2937 79.9854 28.2937C80.2274 28.2937 80.4089 28.209 80.5649 28.0364C80.7209 27.8638 80.8005 27.6066 80.8005 27.2614C80.8005 26.9163 80.7177 26.6496 80.5553 26.4676C80.3929 26.2825 80.1924 26.1915 79.9568 26.1915C79.7212 26.1915 79.5333 26.2762 79.3901 26.4457C79.25 26.6151 79.1799 26.8943 79.1799 27.2865" fill="#FFE800"/>
<path d="M89.0369 29.7307H87.3113V28.962C87.0534 29.2788 86.7955 29.5048 86.5313 29.6365C86.2702 29.7714 85.9486 29.8373 85.5666 29.8373C85.0572 29.8373 84.6592 29.6867 84.3695 29.3887C84.0798 29.0875 83.9365 28.6262 83.9365 28.0019V24.9741H85.7958V27.5877C85.7958 27.8858 85.8531 28.0991 85.9646 28.2246C86.076 28.3501 86.2352 28.4129 86.4357 28.4129C86.6586 28.4129 86.8369 28.3282 86.9802 28.1619C87.1203 27.9956 87.1903 27.6944 87.1903 27.2614V24.9741H89.0401V29.7275L89.0369 29.7307Z" fill="#FFE800"/>
<path d="M95.7005 27.8073H91.9946C92.0264 28.0991 92.1092 28.3187 92.2365 28.4599C92.4148 28.667 92.6472 28.7705 92.937 28.7705C93.1184 28.7705 93.2904 28.7266 93.4559 28.6356C93.5546 28.5791 93.6629 28.4787 93.7775 28.3344L95.5986 28.5007C95.3184 28.9776 94.9841 29.3196 94.5893 29.5267C94.1945 29.7337 93.631 29.8373 92.8956 29.8373C92.2556 29.8373 91.7526 29.7494 91.3865 29.5706C91.0203 29.3918 90.7147 29.1094 90.4759 28.7235C90.2339 28.3375 90.113 27.8826 90.113 27.3586C90.113 26.615 90.3549 26.0126 90.8389 25.5545C91.3228 25.0964 91.9882 24.8643 92.8414 24.8643C93.5323 24.8643 94.0767 24.9678 94.4779 25.1717C94.8759 25.3788 95.1815 25.6769 95.3916 26.0659C95.6018 26.4581 95.7036 26.9664 95.7036 27.5939V27.801L95.7005 27.8073ZM93.8189 26.935C93.7838 26.5836 93.6851 26.3295 93.5291 26.1789C93.3731 26.0283 93.1694 25.9499 92.9147 25.9499C92.6218 25.9499 92.3862 26.0659 92.2111 26.295C92.0996 26.4393 92.0264 26.6527 91.9977 26.935H93.8189Z" fill="#FFE800"/>
<path d="M96.7543 24.9771H98.4863V25.7552C98.6518 25.4195 98.8237 25.1873 99.002 25.0587C99.1803 24.9332 99.3968 24.8673 99.6579 24.8673C99.9189 24.8673 100.228 24.952 100.553 25.1183L99.9794 26.4173C99.7629 26.3263 99.5878 26.2823 99.4605 26.2823C99.2185 26.2823 99.0307 26.3796 98.897 26.5773C98.7059 26.8534 98.6104 27.3742 98.6104 28.1366V29.7305H96.7511V24.9771H96.7543Z" fill="#FFE800"/>
<path d="M101.119 24.9772H102.969V29.7306H101.119V24.9772ZM101.992 23.057H103.58L102.113 24.3967H101.227L101.992 23.057Z" fill="#FFE800"/>
<path d="M106.022 26.5178L104.255 26.3327C104.322 26.0284 104.418 25.7899 104.545 25.6142C104.669 25.4385 104.851 25.2879 105.086 25.1593C105.255 25.0651 105.491 24.9961 105.787 24.9459C106.083 24.8957 106.404 24.8706 106.748 24.8706C107.302 24.8706 107.748 24.902 108.085 24.9616C108.423 25.0243 108.703 25.1498 108.926 25.3444C109.082 25.4793 109.206 25.6707 109.298 25.9154C109.391 26.1601 109.435 26.3955 109.435 26.6214V28.7204C109.435 28.9432 109.448 29.1189 109.48 29.2475C109.508 29.373 109.572 29.5362 109.668 29.7338H107.932C107.862 29.6115 107.818 29.5173 107.796 29.4546C107.773 29.3918 107.754 29.2914 107.732 29.1534C107.49 29.3824 107.248 29.5487 107.009 29.646C106.681 29.7777 106.302 29.8436 105.869 29.8436C105.293 29.8436 104.857 29.7119 104.558 29.4483C104.258 29.1847 104.109 28.8616 104.109 28.4757C104.109 28.1148 104.217 27.8168 104.43 27.5846C104.647 27.3524 105.042 27.1798 105.621 27.0669C106.315 26.9288 106.764 26.8347 106.971 26.7782C107.178 26.7218 107.394 26.6496 107.624 26.5617C107.624 26.339 107.576 26.1821 107.484 26.0911C107.391 26.0001 107.226 25.9562 106.987 25.9562C106.684 25.9562 106.458 26.0033 106.306 26.1005C106.188 26.1758 106.092 26.3139 106.019 26.521M107.624 27.4779C107.369 27.5689 107.105 27.6473 106.828 27.7164C106.452 27.8136 106.213 27.9109 106.115 28.0082C106.013 28.1054 105.962 28.2184 105.962 28.3439C105.962 28.4882 106.013 28.6043 106.115 28.6953C106.216 28.7863 106.366 28.8333 106.563 28.8333C106.761 28.8333 106.961 28.7831 107.137 28.6859C107.315 28.5855 107.439 28.4662 107.512 28.3251C107.585 28.1839 107.624 27.9987 107.624 27.7728V27.4811V27.4779Z" fill="#FFE800"/>
</g>
<defs>
<filter id="filter0_dd_1_5798" x="0.438503" y="0.0682368" width="168.123" height="52.9866" filterUnits="userSpaceOnUse" color-interpolation-filters="sRGB">
<feFlood flood-opacity="0" result="BackgroundImageFix"/>
<feColorMatrix in="SourceAlpha" type="matrix" values="0 0 0 0 0 0 0 0 0 0 0 0 0 0 0 0 0 0 127 0" result="hardAlpha"/>
<feMorphology radius="1.59358" operator="erode" in="SourceAlpha" result="effect1_dropShadow_1_5798"/>
<feOffset dy="3.18717"/>
<feGaussianBlur stdDeviation="2.39037"/>
<feColorMatrix type="matrix" values="0 0 0 0 0.0627451 0 0 0 0 0.0941176 0 0 0 0 0.156863 0 0 0 0.05 0"/>
<feBlend mode="normal" in2="BackgroundImageFix" result="effect1_dropShadow_1_5798"/>
<feColorMatrix in="SourceAlpha" type="matrix" values="0 0 0 0 0 0 0 0 0 0 0 0 0 0 0 0 0 0 127 0" result="hardAlpha"/>
<feMorphology radius="3.18717" operator="erode" in="SourceAlpha" result="effect2_dropShadow_1_5798"/>
<feOffset dy="9.5615"/>
<feGaussianBlur stdDeviation="6.37433"/>
<feColorMatrix type="matrix" values="0 0 0 0 0.0627451 0 0 0 0 0.0941176 0 0 0 0 0.156863 0 0 0 0.1 0"/>
<feBlend mode="normal" in2="effect1_dropShadow_1_5798" result="effect2_dropShadow_1_5798"/>
<feBlend mode="normal" in="SourceGraphic" in2="effect2_dropShadow_1_5798" result="shape"/>
</filter>
<clipPath id="clip0_1_5798">
<rect width="149" height="33.8636" fill="white" transform="translate(10 0.0682373)"/>
</clipPath>
</defs>
</svg>
