<svg width="124" height="30" viewBox="0 0 124 30" fill="none" xmlns="http://www.w3.org/2000/svg">
<g clip-path="url(#clip0_2048_699)">
<path d="M57.0468 24.2554L59.4141 26.6123C63.3017 30.486 69.6225 30.4791 73.5031 26.5984C75.3879 24.7136 76.4223 22.211 76.4223 19.5487C76.4223 16.8864 75.3844 14.3803 73.5031 12.499C69.6225 8.61834 63.3017 8.6114 59.4141 12.4851L48.9732 22.8879C47.1335 24.7206 44.1449 24.7171 42.3087 22.8809C40.4691 21.0413 40.4691 18.0492 42.3087 16.213C43.2286 15.2932 44.4365 14.835 45.6444 14.835C46.8523 14.835 48.0533 15.2932 48.9732 16.2061L51.3265 18.5421L55.0544 14.835L52.6802 12.4816C48.7927 8.60793 42.4719 8.61487 38.5912 12.4955C34.7036 16.3831 34.7036 22.7074 38.5912 26.5984C40.535 28.5422 43.0862 29.5141 45.6409 29.5141C48.1956 29.5141 50.7365 28.5457 52.6802 26.6123L63.1212 16.2095C64.9608 14.3768 67.9494 14.3803 69.7856 16.2165C70.6777 17.1085 71.1671 18.2922 71.1671 19.5522C71.1671 20.8122 70.6777 21.9958 69.7856 22.8879C67.9494 24.724 64.9608 24.724 63.1212 22.8948L60.7678 20.5553L57.0434 24.2624L57.0468 24.2554Z" fill="#0062FF"/>
<path d="M0 29.5209V9.44434H4.22428L4.62345 12.1934C5.26212 11.1833 6.10212 10.3954 7.15385 9.82268C8.20211 9.25343 9.40309 8.96533 10.7603 8.96533C11.7704 8.96533 12.6798 9.09723 13.4885 9.3645C14.2973 9.63177 15.0158 10.0275 15.6406 10.5585C16.2654 11.0896 16.7756 11.7526 17.1748 12.5509C17.9176 11.4367 18.886 10.5585 20.0835 9.92334C21.2776 9.28467 22.5792 8.9688 23.9885 8.9688C25.6615 8.9688 27.0812 9.30897 28.2509 9.98582C29.4207 10.6627 30.3093 11.6589 30.9202 12.9744C31.5311 14.2899 31.8365 15.904 31.8365 17.8131V29.5244H27.0951V18.2921C27.0951 16.5912 26.748 15.2896 26.0607 14.3871C25.3699 13.4846 24.3495 13.0334 22.9923 13.0334C22.062 13.0334 21.2463 13.259 20.5417 13.7103C19.8371 14.1615 19.2852 14.821 18.8895 15.6818C18.4903 16.5461 18.2925 17.6013 18.2925 18.8474V29.5244H13.551V18.2921C13.551 16.5912 13.2039 15.2896 12.5166 14.3871C11.8259 13.4846 10.7915 13.0334 9.41003 13.0334C8.53533 13.0334 7.74393 13.259 7.0393 13.7103C6.33468 14.1615 5.78278 14.821 5.38708 15.6818C4.98791 16.5461 4.79006 17.6013 4.79006 18.8474V29.5244H0V29.5209Z" fill="#0C9AE8"/>
<path d="M91.9726 29.9999C90.9104 29.9999 89.9524 29.8611 89.1055 29.5799C88.2551 29.3023 87.5123 28.917 86.8736 28.4241C86.2349 27.9312 85.7038 27.3689 85.2804 26.7302L84.7632 29.5175H80.5007V0.8396H85.2804V12.3913C85.9191 11.409 86.7799 10.5933 87.8698 9.94071C88.9597 9.29162 90.3134 8.96534 91.9344 8.96534C93.8192 8.96534 95.4853 9.42352 96.9327 10.3399C98.3801 11.2562 99.5221 12.5058 100.359 14.0851C101.195 15.6645 101.615 17.4798 101.615 19.5243C101.615 21.5687 101.202 23.3077 100.379 24.901C99.5568 26.4942 98.4218 27.7438 96.9744 28.6462C95.5269 29.5487 93.8608 29.9999 91.976 29.9999H91.9726ZM90.9764 25.8555C92.0906 25.8555 93.0868 25.5848 93.965 25.0398C94.8397 24.4948 95.5235 23.752 96.0164 22.8079C96.5092 21.8673 96.7522 20.7565 96.7522 19.4826C96.7522 18.2088 96.5058 17.1327 96.0164 16.1747C95.5235 15.2202 94.8397 14.4739 93.965 13.9428C93.0868 13.4118 92.0941 13.148 90.9764 13.148C89.8587 13.148 88.8313 13.4152 87.967 13.9428C87.1027 14.4739 86.4258 15.2167 85.9364 16.1747C85.4435 17.1293 85.2005 18.2331 85.2005 19.4826C85.2005 20.7322 85.447 21.8673 85.9364 22.8079C86.4293 23.752 87.1062 24.4948 87.967 25.0398C88.8313 25.5848 89.8309 25.8555 90.9764 25.8555Z" fill="#0C9AE8"/>
<path d="M112.927 30C111.282 30 109.914 29.7223 108.825 29.1635C107.735 28.6046 106.926 27.8618 106.395 26.9316C105.864 26.0013 105.6 24.9947 105.6 23.9048C105.6 22.6309 105.926 21.5271 106.575 20.5969C107.224 19.6666 108.189 18.9447 109.463 18.4275C110.737 17.9103 112.306 17.65 114.163 17.65H119.224C119.224 16.5878 119.078 15.7062 118.786 15.0016C118.495 14.2969 118.044 13.7728 117.433 13.4292C116.822 13.0855 116.037 12.912 115.083 12.912C113.993 12.912 113.063 13.1584 112.296 13.6478C111.525 14.1407 111.046 14.8905 110.862 15.8971H106.162C106.322 14.4635 106.801 13.2348 107.596 12.2108C108.391 11.1903 109.449 10.392 110.761 9.81927C112.077 9.25001 113.517 8.96191 115.083 8.96191C116.968 8.96191 118.575 9.28819 119.904 9.93728C121.23 10.5898 122.247 11.5166 122.952 12.7245C123.656 13.9325 124.007 15.3868 124.007 17.0877V29.5175H119.942L119.463 26.2894C119.196 26.8205 118.859 27.3134 118.446 27.7646C118.033 28.2159 117.565 28.6081 117.034 28.9413C116.503 29.2745 115.899 29.5314 115.222 29.7188C114.545 29.9028 113.781 29.9965 112.931 29.9965L112.927 30ZM114.003 26.2165C114.774 26.2165 115.458 26.0777 116.055 25.7965C116.652 25.5189 117.169 25.1197 117.61 24.6025C118.047 24.0853 118.387 23.5056 118.627 22.8704C118.866 22.2318 119.026 21.5549 119.106 20.8399V20.76H114.684C113.753 20.76 112.983 20.878 112.372 21.1176C111.761 21.3571 111.324 21.6833 111.056 22.0929C110.789 22.506 110.657 22.9885 110.657 23.5473C110.657 24.1061 110.789 24.5817 111.056 24.9808C111.32 25.38 111.705 25.6855 112.212 25.8972C112.716 26.1089 113.313 26.2165 114.003 26.2165Z" fill="#0C9AE8"/>
</g>
<defs>
<clipPath id="clip0_2048_699">
<rect width="124" height="29.1603" fill="white" transform="translate(0 0.8396)"/>
</clipPath>
</defs>
</svg>
