<svg xmlns="http://www.w3.org/2000/svg" width="17" height="16" viewBox="0 0 17 16" fill="none">
  <path d="M3.14375 4C2.86761 4 2.64375 4.22386 2.64375 4.5C2.64375 4.77614 2.86761 5 3.14375 5V4ZM14.3562 4.5L14.837 4.63736C14.8801 4.4865 14.8499 4.32416 14.7554 4.1989C14.6609 4.07365 14.5131 4 14.3562 4V4.5ZM12.7063 10.275L12.2255 10.1376L12.2249 10.1398L12.7063 10.275ZM11.7437 11L11.7467 10.5H11.7437V11ZM5.75625 11V10.5L5.75334 10.5L5.75625 11ZM4.79375 10.275L5.27513 10.1398L5.27448 10.1375L4.79375 10.275ZM2.53125 2.3625L3.01198 2.22504L3.01197 2.225L2.53125 2.3625ZM2.05 2V2.5L2.05053 2.5L2.05 2ZM1 1.5C0.723858 1.5 0.5 1.72386 0.5 2C0.5 2.27614 0.723858 2.5 1 2.5V1.5ZM5.5 15C6.32843 15 7 14.3284 7 13.5H6C6 13.7761 5.77614 14 5.5 14V15ZM7 13.5C7 12.6716 6.32843 12 5.5 12V13C5.77614 13 6 13.2239 6 13.5H7ZM5.5 12C4.67157 12 4 12.6716 4 13.5H5C5 13.2239 5.22386 13 5.5 13V12ZM4 13.5C4 14.3284 4.67157 15 5.5 15V14C5.22386 14 5 13.7761 5 13.5H4ZM12 15C12.8284 15 13.5 14.3284 13.5 13.5H12.5C12.5 13.7761 12.2761 14 12 14V15ZM13.5 13.5C13.5 12.6716 12.8284 12 12 12V13C12.2761 13 12.5 13.2239 12.5 13.5H13.5ZM12 12C11.1716 12 10.5 12.6716 10.5 13.5H11.5C11.5 13.2239 11.7239 13 12 13V12ZM10.5 13.5C10.5 14.3284 11.1716 15 12 15V14C11.7239 14 11.5 13.7761 11.5 13.5H10.5ZM3.14375 5H14.3562V4H3.14375V5ZM13.8755 4.36264L12.2255 10.1376L13.187 10.4124L14.837 4.63736L13.8755 4.36264ZM12.2249 10.1398C12.1956 10.2439 12.133 10.3356 12.0466 10.4007L12.6483 11.1994C12.9096 11.0025 13.0991 10.7253 13.1876 10.4102L12.2249 10.1398ZM12.0466 10.4007C11.9602 10.4657 11.8548 10.5006 11.7467 10.5L11.7408 11.5C12.0681 11.5019 12.3869 11.3963 12.6483 11.1994L12.0466 10.4007ZM11.7437 10.5H5.75625V11.5H11.7437V10.5ZM5.75334 10.5C5.64518 10.5006 5.5398 10.4657 5.45341 10.4007L4.85175 11.1994C5.11313 11.3963 5.43193 11.5019 5.75916 11.5L5.75334 10.5ZM5.45341 10.4007C5.36701 10.3356 5.30437 10.2439 5.27512 10.1398L4.31238 10.4102C4.40087 10.7253 4.59037 11.0025 4.85175 11.1994L5.45341 10.4007ZM5.27448 10.1375L3.01198 2.22504L2.05052 2.49996L4.31302 10.4125L5.27448 10.1375ZM3.01197 2.225C2.95218 2.01594 2.82587 1.83207 2.65219 1.70125L2.05053 2.5V2.5L3.01197 2.225ZM2.65219 1.70125C2.4785 1.57042 2.26691 1.49977 2.04947 1.5L2.05053 2.5V2.5L2.65219 1.70125ZM2.05 1.5H1V2.5H2.05V1.5Z" fill="white"/>
</svg>