<svg width="101" height="101" viewBox="0 0 101 101" fill="none" xmlns="http://www.w3.org/2000/svg">
<g id="cart 1" clip-path="url(#clip0_4290_9333)">
<path id="Vector" d="M74.2512 100.499H26.8811C24.1917 100.499 22.0112 98.3183 22.0112 95.6289H79.1211C79.1211 98.3183 76.9406 100.499 74.2512 100.499Z" fill="url(#paint0_linear_4290_9333)"/>
<path id="Vector_2" d="M77.5746 98.1254H23.5569C19.0762 98.1254 15.2417 94.9111 14.4581 90.499L5.89795 42.2812H95.2343L86.6742 90.499C85.8906 94.9111 82.0553 98.1254 77.5746 98.1254Z" fill="url(#paint1_linear_4290_9333)"/>
<path id="Vector_3" d="M22.6109 91.8403H22.6101C20.7669 91.8403 19.1967 90.5021 18.9068 88.6817C17.8265 81.8984 15.3393 65.9415 14.1392 58.2274C13.7852 55.9539 15.5438 53.9023 17.8448 53.9023H18.9839C20.8844 53.9023 22.4842 55.3222 22.7078 57.2097C23.5257 64.1097 25.4139 80.0307 26.334 87.6426C26.6034 89.8757 24.86 91.8403 22.6109 91.8403Z" fill="url(#paint2_linear_4290_9333)"/>
<path id="Vector_4" d="M86.9937 58.2306C85.7928 65.9447 83.3056 81.9016 82.2253 88.6848C81.9354 90.5052 80.3653 91.8442 78.522 91.8442C76.2729 91.8442 74.5295 89.8788 74.7996 87.6457C75.719 80.0339 77.6072 64.1129 78.4251 57.2128C78.6486 55.3261 80.2485 53.9063 82.149 53.9063H83.2881C85.5891 53.9055 87.3477 55.957 86.9937 58.2306Z" fill="url(#paint3_linear_4290_9333)"/>
<path id="Vector_5" d="M35.4237 91.8403H34.364C32.4376 91.8403 30.8247 90.3815 30.6325 88.4643C29.9359 81.4979 28.3749 65.5662 27.6356 58.0161C27.4197 55.8112 29.1531 53.9023 31.3679 53.9023H33.7163C35.706 53.9023 37.3486 55.4549 37.46 57.4416C37.856 64.5354 38.7448 80.4473 39.1675 87.8791C39.2895 90.0306 37.5783 91.8403 35.4237 91.8403Z" fill="url(#paint4_linear_4290_9333)"/>
<path id="Vector_6" d="M73.4973 58.0161C72.758 65.5662 71.197 81.4979 70.4997 88.4643C70.3082 90.3808 68.6954 91.8403 66.7689 91.8403H65.7069C63.5524 91.8403 61.8411 90.0306 61.9632 87.8791C62.3858 80.4473 63.2747 64.5354 63.6706 57.4416C63.7813 55.4549 65.4246 53.9023 67.4151 53.9023H69.765C71.9798 53.9023 73.7124 55.8112 73.4973 58.0161Z" fill="url(#paint5_linear_4290_9333)"/>
<path id="Vector_7" d="M55.5279 57.7315C55.373 65.058 55.0358 80.9699 54.8802 88.1721C54.8359 90.2106 53.1704 91.841 51.1311 91.841H50.0004C47.9611 91.841 46.2956 90.2106 46.2513 88.1721C46.0965 80.9699 45.76 65.058 45.6051 57.7315C45.5601 55.6296 47.2523 53.9023 49.3542 53.9023H51.7788C53.8807 53.9023 55.5722 55.6296 55.5279 57.7315Z" fill="url(#paint6_linear_4290_9333)"/>
<path id="Vector_8" d="M55.7309 98.1254H77.5753C82.0561 98.1254 85.8906 94.9111 86.6742 90.499L95.2343 42.2812H5.89795L7.19495 49.5894L55.7309 98.1254Z" fill="url(#paint7_linear_4290_9333)"/>
<path id="Vector_9" d="M89.0561 77.0789L86.675 90.4998C85.8914 94.9119 82.0561 98.1261 77.5754 98.1261H27.3534L13.3206 84.0911L11.8848 76.0131L45.6174 42.2812H54.2584L89.0561 77.0789Z" fill="url(#paint8_linear_4290_9333)"/>
<path id="Vector_10" d="M90.2171 50.5496H10.9149C6.67294 50.5496 3.23438 47.1111 3.23438 42.8691V41.45C3.23438 37.2081 6.67294 33.7695 10.9149 33.7695H90.2171C94.459 33.7695 97.8976 37.2081 97.8976 41.45V42.8691C97.8976 47.1111 94.459 50.5496 90.2171 50.5496Z" fill="url(#paint9_linear_4290_9333)"/>
<path id="Vector_11" d="M39.9463 16.5431L47.507 29.9029C48.8529 32.2818 52.2792 32.2818 53.6251 29.9029L61.1858 16.5431C62.5118 14.2001 60.8188 11.2971 58.1264 11.2971H56.3816L57.632 2.47678C57.78 1.43307 56.9698 0.5 55.9154 0.5H45.2167C44.1623 0.5 43.3521 1.43307 43.5001 2.47678L44.7498 11.2971H43.0057C40.3133 11.2971 38.6203 14.2001 39.9463 16.5431Z" fill="url(#paint10_linear_4290_9333)"/>
<path id="Vector_12" d="M13.4175 84.6406L14.4581 90.5023C15.2417 94.9144 19.0762 98.1286 23.5569 98.1286H77.5753C82.0561 98.1286 85.8906 94.9144 86.6742 90.5023L87.7148 84.6406H13.4175Z" fill="url(#paint11_linear_4290_9333)"/>
<path id="Vector_13" d="M55.3632 42.1633C55.3632 44.8961 53.1476 47.1117 50.4147 47.1117C47.6819 47.1117 45.4663 44.8961 45.4663 42.1633C45.4663 39.4304 47.6819 37.2148 50.4147 37.2148C53.1476 37.2148 55.3632 39.4304 55.3632 42.1633Z" fill="white"/>
<path id="Vector_14" d="M62.5277 50.5517C56.7088 44.7328 52.3242 40.3482 52.2708 40.294C50.9821 39.0062 48.8932 39.0062 47.6054 40.294L37.3477 50.5517H62.5277Z" fill="url(#paint12_linear_4290_9333)"/>
<path id="Vector_15" d="M7.39459 85.1701C6.10675 83.8815 6.10675 81.7933 7.39459 80.5047L47.6046 40.294C48.8932 39.0062 50.9821 39.0062 52.2707 40.294C53.5585 41.5826 53.5585 43.6715 52.2707 44.9601L12.06 85.1701C10.7714 86.4587 8.6832 86.4587 7.39459 85.1701Z" fill="url(#paint13_linear_4290_9333)"/>
</g>
<defs>
<linearGradient id="paint0_linear_4290_9333" x1="50.5661" y1="94.3008" x2="50.5661" y2="104.944" gradientUnits="userSpaceOnUse">
<stop stop-color="#3B395F"/>
<stop offset="0.0633" stop-color="#37355A"/>
<stop offset="0.4033" stop-color="#232543"/>
<stop offset="0.7232" stop-color="#171B35"/>
<stop offset="1" stop-color="#131830"/>
</linearGradient>
<linearGradient id="paint1_linear_4290_9333" x1="34.8512" y1="47.5726" x2="95.053" y2="107.774" gradientUnits="userSpaceOnUse">
<stop stop-color="#FF6E3A"/>
<stop offset="0.1596" stop-color="#FF6440"/>
<stop offset="0.4266" stop-color="#FF4B52"/>
<stop offset="0.7662" stop-color="#FF216E"/>
<stop offset="1" stop-color="#FF0084"/>
</linearGradient>
<linearGradient id="paint2_linear_4290_9333" x1="24.5753" y1="72.3547" x2="9.83299" y2="74.1073" gradientUnits="userSpaceOnUse">
<stop stop-color="#FF6E3A"/>
<stop offset="0.1596" stop-color="#FF6440"/>
<stop offset="0.4266" stop-color="#FF4B52"/>
<stop offset="0.7662" stop-color="#FF216E"/>
<stop offset="1" stop-color="#FF0084"/>
</linearGradient>
<linearGradient id="paint3_linear_4290_9333" x1="86.6453" y1="73.6947" x2="70.769" y2="71.4267" gradientUnits="userSpaceOnUse">
<stop stop-color="#FF6E3A"/>
<stop offset="0.1596" stop-color="#FF6440"/>
<stop offset="0.4266" stop-color="#FF4B52"/>
<stop offset="0.7662" stop-color="#FF216E"/>
<stop offset="1" stop-color="#FF0084"/>
</linearGradient>
<linearGradient id="paint4_linear_4290_9333" x1="40.4926" y1="72.5002" x2="22.7607" y2="73.428" gradientUnits="userSpaceOnUse">
<stop stop-color="#FF6E3A"/>
<stop offset="0.1596" stop-color="#FF6440"/>
<stop offset="0.4266" stop-color="#FF4B52"/>
<stop offset="0.7662" stop-color="#FF216E"/>
<stop offset="1" stop-color="#FF0084"/>
</linearGradient>
<linearGradient id="paint5_linear_4290_9333" x1="73.7085" y1="73.247" x2="55.6672" y2="72.1129" gradientUnits="userSpaceOnUse">
<stop stop-color="#FF6E3A"/>
<stop offset="0.1596" stop-color="#FF6440"/>
<stop offset="0.4266" stop-color="#FF4B52"/>
<stop offset="0.7662" stop-color="#FF216E"/>
<stop offset="1" stop-color="#FF0084"/>
</linearGradient>
<linearGradient id="paint6_linear_4290_9333" x1="55.0542" y1="72.8716" x2="39.9853" y2="72.8716" gradientUnits="userSpaceOnUse">
<stop stop-color="#FF6E3A"/>
<stop offset="0.1596" stop-color="#FF6440"/>
<stop offset="0.4266" stop-color="#FF4B52"/>
<stop offset="0.7662" stop-color="#FF216E"/>
<stop offset="1" stop-color="#FF0084"/>
</linearGradient>
<linearGradient id="paint7_linear_4290_9333" x1="56.0147" y1="75.1485" x2="41.9869" y2="-9.47119" gradientUnits="userSpaceOnUse">
<stop stop-color="#E4003D" stop-opacity="0"/>
<stop offset="0.5838" stop-color="#BD294B" stop-opacity="0.584314"/>
<stop offset="1" stop-color="#A64153"/>
</linearGradient>
<linearGradient id="paint8_linear_4290_9333" x1="46.9517" y1="76.2537" x2="20.5596" y2="50.274" gradientUnits="userSpaceOnUse">
<stop stop-color="#E4003D" stop-opacity="0"/>
<stop offset="0.5838" stop-color="#BD294B" stop-opacity="0.584314"/>
<stop offset="1" stop-color="#A64153"/>
</linearGradient>
<linearGradient id="paint9_linear_4290_9333" x1="50.566" y1="38.2557" x2="50.566" y2="51.591" gradientUnits="userSpaceOnUse">
<stop stop-color="#3B395F"/>
<stop offset="0.0633" stop-color="#37355A"/>
<stop offset="0.4033" stop-color="#232543"/>
<stop offset="0.7232" stop-color="#171B35"/>
<stop offset="1" stop-color="#131830"/>
</linearGradient>
<linearGradient id="paint10_linear_4290_9333" x1="49.5053" y1="12.7298" x2="56.2804" y2="19.5049" gradientUnits="userSpaceOnUse">
<stop stop-color="#8BE1E2"/>
<stop offset="0.1873" stop-color="#87E1E1"/>
<stop offset="0.3558" stop-color="#7CE2DD"/>
<stop offset="0.5172" stop-color="#6AE2D7"/>
<stop offset="0.6741" stop-color="#50E4CE"/>
<stop offset="0.8278" stop-color="#2FE5C2"/>
<stop offset="0.9772" stop-color="#07E7B4"/>
<stop offset="1" stop-color="#00E7B2"/>
</linearGradient>
<linearGradient id="paint11_linear_4290_9333" x1="50.5661" y1="91.748" x2="50.5661" y2="102.871" gradientUnits="userSpaceOnUse">
<stop stop-color="#E4003D" stop-opacity="0"/>
<stop offset="0.5838" stop-color="#BD294B" stop-opacity="0.584314"/>
<stop offset="1" stop-color="#A64153"/>
</linearGradient>
<linearGradient id="paint12_linear_4290_9333" x1="65.082" y1="65.696" x2="36.058" y2="36.6721" gradientUnits="userSpaceOnUse">
<stop stop-color="#3B395F" stop-opacity="0"/>
<stop offset="0.0633" stop-color="#37355A" stop-opacity="0.062745"/>
<stop offset="0.4033" stop-color="#232543" stop-opacity="0.403922"/>
<stop offset="0.7232" stop-color="#171B35" stop-opacity="0.721569"/>
<stop offset="1" stop-color="#131830"/>
</linearGradient>
<linearGradient id="paint13_linear_4290_9333" x1="27.5" y1="60.3987" x2="32.1654" y2="65.0641" gradientUnits="userSpaceOnUse">
<stop stop-color="#FFD459"/>
<stop offset="0.2296" stop-color="#FFD355"/>
<stop offset="0.4362" stop-color="#FFCF4A"/>
<stop offset="0.634" stop-color="#FFC838"/>
<stop offset="0.825" stop-color="#FFBF1F"/>
<stop offset="1" stop-color="#FFB400"/>
</linearGradient>
<clipPath id="clip0_4290_9333">
<rect width="100" height="100" fill="white" transform="translate(0.5 0.5)"/>
</clipPath>
</defs>
</svg>
