<svg width="24" height="24" viewBox="0 0 24 24" fill="none" xmlns="http://www.w3.org/2000/svg">
<path d="M11.503 2.42804L11.3589 1.69201L11.3563 1.69253L11.503 2.42804ZM3.93741 3.93741L3.79068 3.20191C3.4935 3.2612 3.2612 3.4935 3.20191 3.79068L3.93741 3.93741ZM2.42804 11.503L1.69253 11.3563L1.69201 11.3589L2.42804 11.503ZM2.63429 12.178L3.16462 11.6477L3.16406 11.6472L2.63429 12.178ZM12.4218 21.9655L12.9582 21.4413L12.9521 21.4352L12.4218 21.9655ZM13.4812 21.9655L12.9508 21.4352L12.9448 21.4413L13.4812 21.9655ZM21.9655 13.4812L21.4413 12.9447L21.4352 12.9508L21.9655 13.4812ZM21.9655 12.4218L21.4352 12.9522L21.4413 12.9582L21.9655 12.4218ZM12.178 2.63429L11.6472 3.16406L11.6477 3.16462L12.178 2.63429ZM7.87488 7.49989V6.74989H7.8748L7.87488 7.49989ZM7.63991 7.58268L7.1696 6.99846L7.63991 7.58268ZM7.87491 7.87491L7.29045 8.34492L7.51562 8.62491H7.87491V7.87491ZM11.3563 1.69253L3.79068 3.20191L4.08415 4.67292L11.6498 3.16354L11.3563 1.69253ZM3.20191 3.79068L1.69253 11.3563L3.16354 11.6498L4.67292 4.08415L3.20191 3.79068ZM1.69201 11.3589C1.64471 11.6005 1.6576 11.85 1.72954 12.0855L3.16406 11.6472L3.16406 11.6472L1.69201 11.3589ZM1.72954 12.0855C1.80147 12.3209 1.93026 12.535 2.10451 12.7089L3.16406 11.6472V11.6472L1.72954 12.0855ZM2.10396 12.7084L11.8915 22.4959L12.9521 21.4352L3.16462 11.6477L2.10396 12.7084ZM11.8854 22.4897C12.0242 22.6318 12.1901 22.7447 12.3731 22.8218L12.9551 21.4393C12.9563 21.4397 12.9573 21.4404 12.9582 21.4413L11.8854 22.4897ZM12.3731 22.8218C12.5562 22.8988 12.7528 22.9385 12.9515 22.9385V21.4385C12.9527 21.4385 12.954 21.4388 12.9551 21.4393L12.3731 22.8218ZM12.9515 22.9385C13.1501 22.9385 13.3467 22.8988 13.5298 22.8218L12.9478 21.4393C12.949 21.4388 12.9502 21.4385 12.9515 21.4385V22.9385ZM13.5298 22.8218C13.7129 22.7447 13.8787 22.6318 14.0176 22.4897L12.9448 21.4413C12.9456 21.4404 12.9467 21.4397 12.9478 21.4393L13.5298 22.8218ZM14.0115 22.4959L22.4959 14.0115L21.4352 12.9508L12.9508 21.4352L14.0115 22.4959ZM22.4897 14.0176C22.6318 13.8787 22.7447 13.7129 22.8218 13.5298L21.4393 12.9478C21.4397 12.9467 21.4404 12.9456 21.4413 12.9448L22.4897 14.0176ZM22.8218 13.5298C22.8988 13.3467 22.9385 13.1501 22.9385 12.9515H21.4385C21.4385 12.9502 21.4388 12.949 21.4393 12.9478L22.8218 13.5298ZM22.9385 12.9515C22.9385 12.7528 22.8988 12.5562 22.8218 12.3731L21.4393 12.9551C21.4388 12.954 21.4385 12.9527 21.4385 12.9515H22.9385ZM22.8218 12.3731C22.7447 12.1901 22.6318 12.0242 22.4897 11.8854L21.4413 12.9582C21.4404 12.9573 21.4397 12.9563 21.4393 12.9551L22.8218 12.3731ZM22.4959 11.8915L12.7084 2.10396L11.6477 3.16462L21.4352 12.9521L22.4959 11.8915ZM12.7089 2.10451C12.535 1.93026 12.3209 1.80147 12.0855 1.72954L11.6472 3.16406H11.6472L12.7089 2.10451ZM12.0855 1.72954C11.85 1.6576 11.6005 1.64471 11.3589 1.69201L11.6472 3.16406L11.6472 3.16406L12.0855 1.72954ZM8.24991 7.87491C8.24991 8.08202 8.08202 8.24991 7.87491 8.24991V9.74991C8.91045 9.74991 9.74991 8.91045 9.74991 7.87491H8.24991ZM7.87491 8.24991C7.66781 8.24991 7.49991 8.08202 7.49991 7.87491H5.99991C5.99991 8.91045 6.83938 9.74991 7.87491 9.74991V8.24991ZM7.49991 7.87491C7.49991 7.66781 7.66781 7.49991 7.87491 7.49991V5.99991C6.83938 5.99991 5.99991 6.83938 5.99991 7.87491H7.49991ZM7.87491 7.49991C8.08202 7.49991 8.24991 7.66781 8.24991 7.87491H9.74991C9.74991 6.83938 8.91045 5.99991 7.87491 5.99991V7.49991ZM7.87491 7.49991C8.08192 7.49991 8.24988 7.66771 8.24988 7.87491H6.74988C6.74988 8.49634 7.2537 8.99991 7.87491 8.99991V7.49991ZM7.49991 7.87491C7.49991 7.66781 7.66781 7.49991 7.87491 7.49991V8.99991C8.49623 8.99991 8.99991 8.49623 8.99991 7.87491H7.49991ZM7.87488 8.24989C7.6678 8.24989 7.49991 8.08206 7.49991 7.87491H8.99991C8.99991 7.25356 8.49616 6.74989 7.87488 6.74989V8.24989ZM7.34455 8.03023L7.71959 8.40525L8.78023 7.34457L8.4052 6.96955L7.34455 8.03023ZM7.8748 6.74989C7.60841 6.74992 7.36211 6.84348 7.1696 6.99846L8.11021 8.1669C8.04631 8.21834 7.96341 8.24988 7.87495 8.24989L7.8748 6.74989ZM7.1696 6.99846C6.91504 7.20339 6.74988 7.52008 6.74988 7.87491H8.24988C8.24988 7.9935 8.194 8.09944 8.11021 8.1669L7.1696 6.99846ZM7.05545 8.05269C7.14945 8.16958 7.2082 8.24264 7.24345 8.28647C7.26108 8.30839 7.27283 8.323 7.28017 8.33214C7.28384 8.3367 7.28642 8.3399 7.28807 8.34195C7.28889 8.34298 7.28949 8.34372 7.28988 8.34421C7.29008 8.34445 7.29022 8.34463 7.29031 8.34475C7.29036 8.3448 7.2904 8.34485 7.29042 8.34488C7.29043 8.34489 7.29044 8.3449 7.29045 8.34491C7.29045 8.34491 7.29045 8.34492 7.29045 8.34492C7.29045 8.34492 7.29045 8.34492 7.29045 8.34492C7.29045 8.34492 7.29045 8.34492 7.87491 7.87491C8.45937 7.40491 8.45937 7.40491 8.45937 7.40491C8.45937 7.40491 8.45937 7.40491 8.45937 7.4049C8.45937 7.4049 8.45937 7.4049 8.45937 7.4049C8.45936 7.40489 8.45935 7.40488 8.45934 7.40486C8.45932 7.40484 8.45928 7.40479 8.45923 7.40473C8.45914 7.40461 8.459 7.40444 8.4588 7.40419C8.45841 7.40371 8.45781 7.40297 8.45699 7.40194C8.45534 7.39988 8.45276 7.39669 8.44909 7.39212C8.44175 7.38299 8.43 7.36838 8.41237 7.34646C8.37712 7.30262 8.31837 7.22957 8.22436 7.11267L7.05545 8.05269ZM7.87491 8.62491H8.24991V7.12491H7.87491V8.62491Z" fill="#344054"/>
</svg>
