<svg width="24" height="24" viewBox="0 0 24 24" fill="none" xmlns="http://www.w3.org/2000/svg">
<path d="M2.2567 19.875C2.04962 20.2338 2.17257 20.6925 2.53131 20.8995C2.89005 21.1066 3.34873 20.9837 3.5558 20.6249L2.2567 19.875ZM20.4442 20.6249C20.6513 20.9837 21.11 21.1066 21.4687 20.8995C21.8274 20.6925 21.9504 20.2338 21.7433 19.875L20.4442 20.6249ZM17.25 9C17.25 11.8995 14.8995 14.25 12 14.25V15.75C15.7279 15.75 18.75 12.7279 18.75 9H17.25ZM12 14.25C9.1005 14.25 6.75 11.8995 6.75 9H5.25C5.25 12.7279 8.27208 15.75 12 15.75V14.25ZM6.75 9C6.75 6.1005 9.1005 3.75 12 3.75V2.25C8.27208 2.25 5.25 5.27208 5.25 9H6.75ZM12 3.75C14.8995 3.75 17.25 6.1005 17.25 9H18.75C18.75 5.27208 15.7279 2.25 12 2.25V3.75ZM3.5558 20.6249C4.41148 19.1425 5.64233 17.9115 7.12461 17.0556L6.37455 15.7566C4.66423 16.7442 3.24402 18.1646 2.2567 19.875L3.5558 20.6249ZM7.12461 17.0556C8.60669 16.1999 10.2881 15.75 12 15.75V14.25C10.0253 14.25 8.08508 14.7689 6.37455 15.7566L7.12461 17.0556ZM12 15.75C13.7119 15.75 15.3933 16.1999 16.8754 17.0556L17.6254 15.7566C15.9149 14.7689 13.9747 14.25 12 14.25V15.75ZM16.8754 17.0556C18.3577 17.9115 19.5885 19.1425 20.4442 20.6249L21.7433 19.875C20.756 18.1646 19.3358 16.7442 17.6254 15.7566L16.8754 17.0556Z" fill="#344054"/>
</svg>
